# xmcd CD database file
#
# Track frame offsets:
#	150
#	34176
#	59438
#	88198
#	121586
#	163240
#	199451
#	225572
#	254537
#	279247
#	303193
#
# Disc length: 4308 seconds
#
# Revision: 0
# Processed by: cddbd v1.5.2PL0 Copyright (c) Steve Scherf et al.
# Submitted via: CDex 1.79
#
DISCID=9510d20b
DTITLE=Heikki Sarmanto - Solo
DYEAR=2014
DGENRE=Jazz
TTITLE0=Heikki Sarmanto - Can't Help Lovin' Dat Man
TTITLE1=Heikki Sarmanto - Autumn In New York
TTITLE2=Heikki Sarmanto - Hos Is It Possible?
TTITLE3=Heikki Sarmanto - You Went Away
TTITLE4=Heikki Sarmanto - Crazy Rhythm
TTITLE5=Heikki Sarmanto - I Should Care
TTITLE6=Heikki Sarmanto - Just In Time
TTITLE7=Heikki Sarmanto - Amazing Grace
TTITLE8=Heikki Sarmanto - The Continental
TTITLE9=Heikki Sarmanto - Chez Allain Leprest
TTITLE10=Heikki Sarmanto - For Maria
EXTD=YEAR: 2014
EXTT0=
EXTT1=
EXTT2=
EXTT3=
EXTT4=
EXTT5=
EXTT6=
EXTT7=
EXTT8=
EXTT9=
EXTT10=
PLAYORDER=
